Coordinates
version=1
nRows=28
nColumns=33
inDegrees=yes

Units are S.I. units (second, meters, Newtons, ...)
Angles are in degrees.

endheader
time	ground_thorax_rot_x	ground_thorax_rot_y	ground_thorax_rot_z	ground_thorax_tx	ground_thorax_ty	ground_thorax_tz	clav_prot_r	clav_elev_r	scapula_abduction_r	scapula_elevation_r	scapula_upward_rot_r	scapula_winging_r	shoulder_elv_r	plane_of_elev_r	axial_rot_r	elbow_flexion_r	pro_sup_r	wrist_flex_r	wrist_dev_r	clav_prot_l	clav_elev_l	scapula_abduction_l	scapula_elevation_l	scapula_upward_rot_l	scapula_winging_l	shoulder_elv_l	plane_of_elev_l	axial_rot_l	elbow_flexion_l	pro_sup_l	wrist_flex_l	wrist_dev_l	
7.8000	39.617277	13.202036	14.483536	-139.226065	795.343900	3.522392	17.042529	38.808230	41.160282	45.000000	-39.667543	-2241.628942	-1188.647562	142.760738	180.000000	2171.523195	49.822638	22.148109	10.657019	6.470109	-45.000000	-39.099271	45.000000	-42.407100	2248.620219	-3333.005492	133.780231	-180.000000	371.200987	-319.234316	6.552183	-21.905521	
7.8100	39.652789	13.171576	14.453070	-141.874657	796.746049	3.406720	16.955403	38.706545	41.101465	45.000000	-39.906287	-2241.802678	-1188.419352	142.705316	180.000000	2171.638952	49.901250	22.163961	10.511568	6.537301	-45.000000	-39.057229	45.000000	-42.482979	2248.927266	-3332.827986	133.764813	-180.000000	371.262500	-319.522353	6.539451	-21.936155	
7.8200	39.684723	13.139037	14.432734	-144.532560	798.176607	3.292033	16.867606	38.590534	41.049471	45.000000	-40.161115	-2241.976676	-1188.194232	142.652916	180.000000	2171.756816	49.998000	22.181795	10.360675	6.610295	-45.000000	-39.012881	45.000000	-42.569900	2249.237062	-3332.649035	133.749055	-180.000000	371.310813	-319.877032	6.538503	-21.962013	
7.8300	39.711796	13.109847	14.427943	-147.196493	799.636087	3.178203	16.789728	38.456708	40.995033	45.000000	-40.461055	-2242.151350	-1187.955885	142.586240	180.000000	2171.884340	50.112216	22.198701	10.202485	6.699888	-45.000000	-38.963794	45.000000	-42.689061	2249.552770	-3332.461535	133.725806	-180.000000	371.353972	-320.300136	6.550932	-21.984287	
7.8400	39.738330	13.063802	14.408110	-149.862957	801.123793	3.065691	16.707148	38.336556	40.941895	45.000000	-40.742662	-2242.318797	-1187.721066	142.529210	180.000000	2172.012204	50.244580	22.215491	10.040872	6.779859	-45.000000	-38.931882	45.000000	-42.774221	2249.865384	-3332.279730	133.713877	-180.000000	371.384622	-320.789643	6.574958	-22.002214	
7.8500	39.766079	12.998130	14.366579	-152.529185	802.637722	2.955417	16.623341	38.235588	40.881856	45.000000	-41.009689	-2242.479640	-1187.480837	142.472123	180.000000	2172.144895	50.394865	22.230960	9.876115	6.850589	-45.000000	-38.918198	45.000000	-42.819111	2250.175481	-3332.104800	133.710966	-180.000000	371.408773	-321.340363	6.610605	-22.017653	
7.8600	39.799562	12.906427	14.292769	-155.192567	804.174536	2.848711	16.524448	38.161557	40.822822	45.000000	-41.224815	-2242.634196	-1187.250504	142.431567	180.000000	2172.271495	50.560789	22.247236	9.712267	6.897799	-45.000000	-38.922088	45.000000	-42.802428	2250.478030	-3331.944999	133.722178	-180.000000	371.418754	-321.944757	6.653307	-22.029052	
7.8700	39.832853	12.808533	14.214763	-157.850817	805.729986	2.747053	16.425534	38.089648	40.762207	45.000000	-41.443645	-2242.786520	-1187.019248	142.389905	180.000000	2172.396365	50.738508	22.260717	9.545442	6.944987	-45.000000	-38.926945	45.000000	-42.787624	2250.778744	-3331.784049	133.731240	-180.000000	371.420787	-322.599942	6.704109	-22.037365	
7.8800	39.864986	12.714259	14.146094	-160.501164	807.299601	2.652002	16.326042	38.003717	40.708549	45.000000	-41.672144	-2242.941035	-1186.794736	142.351746	180.000000	2172.511090	50.922157	22.272518	9.378430	6.998450	-45.000000	-38.920819	45.000000	-42.806318	2251.078041	-3331.615484	133.730300	-180.000000	371.410666	-323.302528	6.761107	-22.040898	
7.8900	39.895343	12.616848	14.078013	-163.140298	808.878764	2.565034	16.229662	37.916844	40.657370	45.000000	-41.906330	-2243.093788	-1186.573657	142.314716	180.000000	2172.619420	51.107092	22.282332	9.213770	7.056071	-45.000000	-38.913400	45.000000	-42.844012	2251.371913	-3331.441752	133.727192	-180.000000	371.393494	-324.043023	6.824175	-22.041088	
7.9000	39.926051	12.517420	14.005869	-165.763877	810.463088	2.487598	16.136580	37.834074	40.606692	45.000000	-42.140347	-2243.246749	-1186.354518	142.279427	180.000000	2172.723494	51.288817	22.291648	9.055042	7.116009	-45.000000	-38.904684	45.000000	-42.900649	2251.658037	-3331.265302	133.723721	-180.000000	371.375207	-324.807542	6.889249	-22.038131	
7.9100	39.955973	12.411303	13.923174	-168.366704	812.047777	2.421001	16.046879	37.763160	40.554242	45.000000	-42.366756	-2243.396563	-1186.138527	142.246959	180.000000	2172.825059	51.465934	22.301111	8.903984	7.174222	-45.000000	-38.903377	45.000000	-42.962321	2251.934229	-3331.089035	133.725817	-180.000000	371.358738	-325.580220	6.954475	-22.033473	
7.9200	39.986921	12.304883	13.832241	-170.943296	813.627832	2.366395	15.961292	37.701899	40.497727	45.000000	-42.588599	-2243.547829	-1185.924236	142.215760	180.000000	2172.926632	51.637111	22.311451	8.761357	7.231117	-45.000000	-38.904283	45.000000	-43.031759	2252.202582	-3330.915629	133.730535	-180.000000	371.350159	-326.346310	7.015689	-22.028020	
7.9300	40.017458	12.200926	13.741180	-173.488655	815.197311	2.324545	15.879220	37.645498	40.441101	45.000000	-42.807412	-2243.698969	-1185.715736	142.187747	180.000000	2173.022224	51.802225	22.320810	8.626177	7.288872	-45.000000	-38.903835	45.000000	-43.116301	2252.464759	-3330.745419	133.735620	-180.000000	371.344163	-327.092867	7.070937	-22.021435	
7.9400	40.047880	12.104262	13.653904	-175.998403	816.749919	2.295772	15.800856	37.590736	40.384411	45.000000	-43.030924	-2243.851201	-1185.511389	142.161156	180.000000	2173.113825	51.960127	22.329777	8.498523	7.348703	-45.000000	-38.898223	45.000000	-43.221222	2252.722632	-3330.580056	133.739897	-180.000000	371.342819	-327.810636	7.118990	-22.014858	
7.9500	40.076359	12.013423	13.576662	-178.468595	818.278946	2.279784	15.722271	37.525870	40.332945	45.000000	-43.256609	-2244.003522	-1185.320403	142.136869	180.000000	2173.193405	52.109861	22.337736	8.377409	7.410991	-45.000000	-38.882318	45.000000	-43.352153	2252.978004	-3330.417965	133.738144	-180.000000	371.336754	-328.494487	7.159654	-22.007921	
7.9600	40.101769	11.929995	13.511573	-180.895627	819.778238	2.275759	15.645148	37.451972	40.285646	45.000000	-43.495830	-2244.154708	-1185.139583	142.111491	180.000000	2173.264299	52.247979	22.344949	8.264118	7.475719	-45.000000	-38.858542	45.000000	-43.510302	2253.230077	-3330.259336	133.733674	-180.000000	371.329003	-329.139839	7.192192	-22.001481	
7.9700	40.124670	11.849472	13.452551	-183.276110	821.242288	2.282388	15.567150	37.370650	40.242121	45.000000	-43.741198	-2244.302069	-1184.969713	142.085649	180.000000	2173.322062	52.370905	22.351888	8.161437	7.540176	-45.000000	-38.831255	45.000000	-43.687542	2253.476137	-3330.105231	133.726742	-180.000000	371.317329	-329.741411	7.216406	-21.995811	
7.9800	40.145064	11.770007	13.393480	-185.606767	822.666851	2.298119	15.488348	37.292757	40.197310	45.000000	-43.991336	-2244.442385	-1184.806418	142.060964	180.000000	2173.375316	52.474270	22.362109	8.072666	7.600263	-45.000000	-38.810276	45.000000	-43.872556	2253.712591	-3329.958279	133.725601	-180.000000	371.308615	-330.293455	7.231890	-21.992620	
7.9900	40.164867	11.688103	13.328679	-187.884741	824.048951	2.321239	15.407414	37.221074	40.148445	45.000000	-44.232791	-2244.574164	-1184.652030	142.039191	180.000000	2173.422593	52.554873	22.376325	7.998415	7.654079	-45.000000	-38.793554	45.000000	-44.056848	2253.938115	-3329.819526	133.727873	-180.000000	371.302612	-330.791417	7.237720	-21.992186	
8.0000	40.184628	11.606031	13.260845	-190.107818	825.386920	2.350052	15.325805	37.156073	40.095335	45.000000	-44.461588	-2244.695930	-1184.508434	142.024410	180.000000	2173.466728	52.610487	22.394933	7.936646	7.703007	-45.000000	-38.778433	45.000000	-44.244194	2254.153023	-3329.687888	133.733783	-180.000000	371.301410	-331.233434	7.233376	-21.995032	
8.0100	40.204190	11.520291	13.184528	-192.274907	826.680311	2.382947	15.240571	37.108491	40.033643	45.000000	-44.660792	-2244.803613	-1184.378929	142.022641	180.000000	2173.512988	52.642208	22.422166	7.888241	7.744293	-45.000000	-38.765924	45.000000	-44.415688	2254.355197	-3329.569136	133.749031	-180.000000	371.306435	-331.619123	7.219460	-22.001883	
8.0200	40.226145	11.427667	13.092512	-194.384948	827.929199	2.418514	15.154628	37.073167	39.962811	45.000000	-44.813283	-2244.895815	-1184.262858	142.034161	180.000000	2173.553921	52.653266	22.454097	7.849102	7.779152	-45.000000	-38.754898	45.000000	-44.571304	2254.544386	-3329.459566	133.767464	-180.000000	371.314268	-331.947607	7.196698	-22.012524	
8.0300	40.250891	11.324571	12.979958	-196.437357	829.134306	2.455592	15.067300	37.048970	39.882384	45.000000	-44.915192	-2244.974212	-1184.160107	142.056257	180.000000	2173.591264	52.649631	22.489571	7.816071	7.807643	-45.000000	-38.745225	45.000000	-44.699814	2254.721944	-3329.362619	133.787898	-180.000000	371.325895	-332.219101	7.167231	-22.027580	
8.0400	40.279158	11.212791	12.846776	-198.431121	830.296352	2.493280	14.981591	37.021828	39.797496	45.000000	-44.972412	-2245.042536	-1184.069180	142.083568	180.000000	2173.617444	52.637868	22.523115	7.784010	7.834277	-45.000000	-38.733406	45.000000	-44.811719	2254.890327	-3329.272278	133.800755	-180.000000	371.336754	-332.434015	7.131652	-22.045714	
8.0500	40.306667	11.092607	12.695174	-200.365594	831.416396	2.530885	14.894369	37.005770	39.705851	45.000000	-44.995797	-2245.099420	-1183.987030	142.116622	180.000000	2173.646085	52.625171	22.559428	7.754925	7.855920	-45.000000	-38.727979	45.000000	-44.886631	2255.048967	-3329.198399	133.820488	-180.000000	371.352885	-332.591821	7.090950	-22.067474	
8.0600	40.333282	10.969990	12.530200	-202.239277	832.495033	2.567819	14.812001	36.979349	39.613279	45.000000	-45.000000	-2245.149695	-1183.911103	142.147593	180.000000	2173.665275	52.616650	22.589386	7.721666	7.880327	-45.000000	-38.720945	45.000000	-44.944103	2255.201856	-3329.130586	133.832081	-180.000000	371.366649	-332.692211	7.044618	-22.090411	
8.0700	40.355173	10.847172	12.359542	-204.051349	833.533143	2.603541	14.733127	36.949045	39.522148	45.000000	-45.000000	-2245.192990	-1183.840413	142.177539	180.000000	2173.684637	52.616190	22.614641	7.683554	7.906805	-45.000000	-38.718364	45.000000	-44.979533	2255.350165	-3329.074919	133.846337	-180.000000	371.380893	-332.734853	6.993921	-22.114868	
